<svg xmlns="http://www.w3.org/2000/svg" viewBox="0 0 70 30"><defs><style>.cls-1{fill:#ed1c24;}.cls-2{fill:#d71920;}.cls-3{fill:#c4161c;}</style></defs><title>Asset 1</title><g id="Layer_2" data-name="Layer 2"><g id="Layer_2-2" data-name="Layer 2"><path class="cls-1" d="M0,30,20,0V15L10,30ZM30,15V30L40,15V0ZM55,7.5,60,15,70,0H60Z"/><path class="cls-2" d="M20,0H30L20,15ZM30,15,20,30H30ZM50,0H40V15Zm5,7.5L50,15l5,7.5L60,15Z"/><path class="cls-3" d="M30,0V15L20,30V15ZM40,15V30H50V0Zm15,7.5L60,30H70L60,15Z"/></g></g></svg>